<svg width="70" height="70" fill="none" xmlns="http://www.w3.org/2000/svg"><path d="m66.961 48.69.002.002c.26.26.26.682 0 .943l-3.308 3.289a.666.666 0 0 1-.463.194.666.666 0 0 1-.468-.2l-.002-.003-1.79-1.8-.263-.265-.329.178a31.984 31.984 0 0 1-15.162 3.84 32.388 32.388 0 0 1-6.566-.689l-.603-.126v7.114h14.5a5.34 5.34 0 0 1 5.333 5.334v2.332a.667.667 0 0 1-.666.667H3.509a.667.667 0 0 1-.667-.667V66.5a5.34 5.34 0 0 1 5.334-5.333h14.5V47.135a6.27 6.27 0 0 1 .106-1.107l.072-.39-.362-.16a.612.612 0 0 1-.172-.113 32.187 32.187 0 0 1-5.422-38.041l.177-.326-.26-.264-1.78-1.806-.003-.002a.667.667 0 0 1 0-.942v-.001L18.34.694A.666.666 0 0 1 18.803.5a.666.666 0 0 1 .467.2l.003.003 17.698 17.79.173.173.242-.03 10.85-1.323.62-.076-.209-.588a4.223 4.223 0 1 1 3.928 2.807h-.018a4.152 4.152 0 0 1-1.479-.284l-.553-.217-.118.583-2.05 10.096-.053.262.188.19 18.47 18.605ZM50.574 13.284a2.833 2.833 0 0 0 1.986 4.84H52.569a2.833 2.833 0 1 0-1.997-4.843l.002.003ZM48.668 21.4l.329-1.619-1.171 1.164-3.88 3.857-.355.353.352.355 2.572 2.586.658.662.186-.915 1.31-6.444Zm-1.462-1.718 1.033-1.028-1.447.177-7.449.909-1.015.123.721.726 3.25 3.266.352.355.354-.353 4.2-4.175Zm8.803 48.484h.5V66.5a4 4 0 0 0-4-4H8.176a4 4 0 0 0-4 4v1.667h51.833Zm-19.333-9.834v-.5H24.009v3.334h12.667v-2.834ZM24.009 56v.5h12.667v-9.367c0-3.164-2.903-5.633-6.334-5.633-3.43 0-6.333 2.469-6.333 5.633V56Zm14-3.71v.4l.39.088a30.733 30.733 0 0 0 20.7-2.587l.612-.311-.484-.487L18.535 8.468l-.485-.488-.314.612a30.84 30.84 0 0 0 5.066 35.326l.445.468.342-.547a7.812 7.812 0 0 1 6.746-3.672h.007c4.27 0 7.667 3.166 7.667 6.966v5.157Zm24.84-1.143.353.354.354-.352 1.656-1.645.355-.352-.353-.355-28.671-28.839a.55.55 0 0 0-.056-.058l-.012-.01L19.147 2.464l-.353-.355-.355.353-1.65 1.645-.355.353.354.355 1.65 1.653 42.767 43.026 1.644 1.653Z" stroke="#000"/><path d="M30.353 44.333h-.01l.01.5m0-.5-.001.5m0-.5a3.5 3.5 0 1 1-.01 7l.01-7Zm0 .5h-.01a3 3 0 0 0-.01 6h.011a3 3 0 0 0 .01-6Zm1.17 4.182.86-.855h-.412a1.667 1.667 0 0 0-1.626-1.994h-.004a1.667 1.667 0 0 0 0 3.333v.001c.443.002.868-.173 1.182-.485Z" stroke="#2196F3"/><path d="M30.353 44.333h-.01l.01.5m0-.5-.001.5m0-.5a3.5 3.5 0 1 1-.01 7l.01-7Zm0 .5h-.01a3 3 0 0 0-.01 6h.011a3 3 0 0 0 .01-6Zm1.17 4.182.86-.855h-.412a1.667 1.667 0 0 0-1.626-1.994h-.004a1.667 1.667 0 0 0 0 3.333v.001c.443.002.868-.173 1.182-.485Z" stroke="#000" stroke-opacity=".2"/></svg>